<?xml version="1.0" encoding="UTF-8" standalone="no"?>
<!-- Created with Inkscape (http://www.inkscape.org/) -->

<svg
   width="210mm"
   height="297mm"
   viewBox="0 0 210 297"
   version="1.1"
   id="svg1"
   inkscape:version="1.3.2 (091e20ef0f, 2023-11-25, custom)"
   sodipodi:docname="score.svg"
   xmlns:inkscape="http://www.inkscape.org/namespaces/inkscape"
   xmlns:sodipodi="http://sodipodi.sourceforge.net/DTD/sodipodi-0.dtd"
   xmlns="http://www.w3.org/2000/svg"
   xmlns:svg="http://www.w3.org/2000/svg">
  <sodipodi:namedview
     id="namedview1"
     pagecolor="#ffffff"
     bordercolor="#000000"
     borderopacity="0.25"
     inkscape:showpageshadow="2"
     inkscape:pageopacity="0.0"
     inkscape:pagecheckerboard="0"
     inkscape:deskcolor="#d1d1d1"
     inkscape:document-units="mm"
     inkscape:zoom="1.5438029"
     inkscape:cx="453.10187"
     inkscape:cy="204.36546"
     inkscape:window-width="1920"
     inkscape:window-height="1011"
     inkscape:window-x="0"
     inkscape:window-y="0"
     inkscape:window-maximized="1"
     inkscape:current-layer="layer1" />
  <defs
     id="defs1">
    <linearGradient
       id="swatch8"
       inkscape:swatch="solid">
      <stop
         style="stop-color:#000000;stop-opacity:1;"
         offset="0"
         id="stop8" />
    </linearGradient>
    <linearGradient
       id="swatch7"
       inkscape:swatch="solid">
      <stop
         style="stop-color:#000000;stop-opacity:1;"
         offset="0"
         id="stop7" />
    </linearGradient>
    <linearGradient
       id="swatch6"
       inkscape:swatch="solid">
      <stop
         style="stop-color:#ff8080;stop-opacity:1;"
         offset="0"
         id="stop6" />
    </linearGradient>
  </defs>
  <g
     inkscape:label="Layer 1"
     inkscape:groupmode="layer"
     id="layer1">
    <rect
       style="fill:none;fill-opacity:1;fill-rule:evenodd;stroke:#000000;stroke-width:0.434589;stroke-dasharray:none;stroke-dashoffset:0;stroke-opacity:1;paint-order:markers fill stroke"
       id="rect2-0"
       width="203.95471"
       height="28.742411"
       x="3.0542958"
       y="57.036842">
      <desc
         id="desc2-9">duration 4000, start 0,</desc>
    </rect>
    <rect
       style="fill:none;fill-opacity:1;fill-rule:evenodd;stroke:#000c00;stroke-width:0.564999;stroke-dasharray:none;stroke-dashoffset:0;stroke-opacity:1;paint-order:markers fill stroke"
       id="rect4"
       width="205.04584"
       height="42.954811"
       x="1.7935568"
       y="5.9075212">
      <desc
         id="desc4">duration 4000, start 0,</desc>
    </rect>
    <path
       style="fill:none;fill-rule:evenodd;stroke-width:0.565;paint-order:markers fill stroke;stroke:#ff0000;stroke-opacity:1;stroke-dasharray:0.565,1.12999999;stroke-dashoffset:0"
       d="m 3.9379294,85.151192 c 0.3216955,-0.717619 0.775112,-1.385041 1.0713987,-2.114677 0.5823228,-1.434031 -0.1967875,0.304937 0.170992,-1.21058 0.063439,-0.261414 0.2221006,-0.490024 0.3317584,-0.735663 0.3156924,-0.70716 0.6631623,-1.385552 1.0262365,-2.069516 0.1028626,-0.193773 0.2509218,-0.365821 0.3249417,-0.572338 0.065413,-0.182507 0.036225,-0.387898 0.086348,-0.575181 0.1012921,-0.378481 0.3919244,-0.679717 0.5570022,-1.035042 0.2290755,-0.493077 0.3032755,-1.065093 0.4700863,-1.576422 0.131164,-0.402061 0.3860207,-0.752763 0.5669436,-1.135022 0.5144222,-1.08689 0.075486,-0.118841 0.3371553,-1.043848 0.210983,-0.745831 0.6235065,-1.473914 0.7416282,-2.249027 0.033992,-0.223054 -0.022783,-0.663824 0,-0.913757 0.016814,-0.184452 0.070328,-0.364588 0.083508,-0.549333 0.027631,-0.3873 -0.078592,-0.784604 0,-1.164849 0.04835,-0.233927 0.1929588,-0.439495 0.2510915,-0.671185 0.05397,-0.215101 0.055293,-0.440073 0.08294,-0.660109 0.08455,-0.223729 0.192723,-0.439904 0.253648,-0.671187 0.101714,-0.386125 -0.09689,-0.849437 0,-1.236993 0.02629,-0.105161 0.119138,-0.185698 0.145428,-0.290857 0.02493,-0.09972 -0.03116,-0.584311 0,-0.654428 0.05569,-0.125293 0.218188,-0.174588 0.290857,-0.290856 0.05485,-0.08776 0.143103,-0.740397 0.145428,-0.75015 0.03697,-0.155069 0.09695,-0.303733 0.145429,-0.455602 0.05586,-0.221739 0.119647,-0.441631 0.167583,-0.66522 0.07855,-0.366377 0.02784,-0.678281 0.07271,-1.037315 0.03076,-0.246073 0.110924,-0.485611 0.145428,-0.727141 0.02742,-0.191955 -0.03188,-0.390449 0,-0.581713 0.0089,-0.05346 0.0595,-0.09287 0.07271,-0.145428 0.08613,-0.342517 0,-0.943653 0,-1.301756"
       id="path2" />
    <path
       style="fill:none;fill-rule:evenodd;stroke:#ff0000;stroke-width:0.565;stroke-opacity:1;paint-order:markers fill stroke;stroke-dasharray:0.565,1.12999999;stroke-dashoffset:0"
       d="m 9.1750575,84.748991 c 0.1644591,-0.12119 0.3512658,-0.216813 0.4933772,-0.363572 0.128364,-0.132562 0.1954488,-0.313542 0.3056271,-0.461563 0.2068632,-0.277921 0.9185742,-1.086996 1.0711142,-1.252048 0.09615,-0.10404 1.125297,-1.125469 1.156895,-1.164564 0.527773,-0.653042 0.866526,-1.45965 1.318797,-2.155295 0.376528,-0.579144 0.825766,-1.108274 1.264262,-1.642036 0.209827,-0.255413 0.468934,-0.471004 0.6567,-0.743048 0.22372,-0.324136 0.335677,-0.718466 0.570352,-1.034757 0.215138,-0.289959 0.546856,-0.478938 0.765772,-0.766056 0.156554,-0.205327 0.225601,-0.46464 0.346529,-0.692774 0.399521,-0.753705 0.769656,-1.492089 1.308856,-2.16268 0.335783,-0.417605 0.731091,-0.786236 1.134455,-1.139 0.232852,-0.203642 0.514263,-0.348104 0.741628,-0.557853 0.196705,-0.181467 0.340086,-0.413813 0.523202,-0.608983 0.251579,-0.268139 0.512253,-0.52795 0.779974,-0.779973 0.247686,-0.233164 0.532794,-0.426749 0.765487,-0.674878 0.624053,-0.665454 1.375568,-2.083644 1.544041,-2.961968 0.04646,-0.242203 0.08991,-0.911572 0.15821,-1.163712 0.02845,-0.105034 0.119096,-0.186693 0.145429,-0.292277 0.02346,-0.09407 -0.03177,-0.199258 0,-0.290857 0.308333,-0.889116 0.277752,-0.408958 0.647327,-1.140137 0.103188,-0.204152 0.151953,-0.4323 0.248535,-0.639659 0.312529,-0.670994 0.159464,-0.06434 0.462132,-0.847005 0.109758,-0.283822 0.314072,-0.840092 0.37749,-1.157179 0.01409,-0.07047 -0.03209,-0.151287 0,-0.215586 0.08666,-0.173672 0.07016,0.02384 0.07016,-0.140602"
       id="path3" />
    <path
       style="fill:none;fill-rule:evenodd;stroke:#ff0000;stroke-width:0.565;stroke-opacity:1;paint-order:markers fill stroke;stroke-dasharray:0.565,1.12999999;stroke-dashoffset:0"
       d="m 11.08673,84.163944 c 1.8181,-1.029936 3.622534,-2.087025 5.293913,-3.333649 0.464767,-0.346655 1.02498,-0.553752 1.482248,-0.910238 1.217373,-0.949069 2.243368,-2.152992 3.474243,-3.088619 1.187596,-0.902727 0.745759,-0.377688 1.850199,-1.11751 0.67035,-0.449041 1.245482,-1.033561 1.929332,-1.46176 0.310249,-0.194267 0.65476,-0.327514 0.982139,-0.491273 0.338092,-0.258019 0.654968,-0.546512 1.014275,-0.774062 2.799498,-1.77292 -0.865455,0.8671 1.971511,-1.116304 0.71106,-0.497123 1.027602,-0.847561 1.73451,-1.250873 0.825471,-0.470953 1.712569,-0.844981 2.510983,-1.367364 0.575286,-0.376393 0.971386,-0.908444 1.478632,-1.359328 0.326964,-0.290635 0.699077,-0.534567 1.028335,-0.822667 0.615363,-0.538443 1.170025,-1.170024 1.748168,-1.748168 0.577684,-0.577683 1.210527,-1.133721 1.748168,-1.748171 0.503476,-0.5754 -0.180213,-0.05549 0.617001,-0.719833 0.05888,-0.04907 0.159679,-0.04152 0.205668,-0.102833 0.144884,-0.193178 0.07153,-0.514168 0.411332,-0.514168"
       id="path4" />
    <path
       style="fill:none;fill-rule:evenodd;stroke:#ff0000;stroke-width:0.564999;stroke-opacity:1;paint-order:markers fill stroke;stroke-dasharray:0.56499898,1.12999797;stroke-dashoffset:0"
       d="m 22.790058,82.88375 c 1.435276,0.22715 2.608273,-0.727557 3.877545,-1.230387 1.010541,-0.400333 2.121077,-0.573397 3.065721,-1.111083 0.77093,-0.438809 1.430274,-1.050624 2.167134,-1.544511 0.456562,-0.306014 0.961527,-0.536903 1.410747,-0.853598 0.518234,-0.36535 0.976241,-0.81039 1.485461,-1.188207 0.411009,-0.304951 0.859761,-0.556445 1.272966,-0.85842 0.419555,-0.306617 0.789884,-0.679764 1.223555,-0.96607 0.935424,-0.617556 2.11029,-0.878644 3.011093,-1.560176 0.335542,-0.253868 0.566127,-0.627087 0.892562,-0.892562 3.273089,-2.661862 -0.60211,0.684072 2.201277,-1.309118 0.613048,-0.435872 1.130888,-0.99458 1.733709,-1.444488 0.606655,-0.452773 1.272516,-0.821203 1.889564,-1.25971 0.669034,-0.475451 1.288376,-1.019516 1.96709,-1.481042 0.695293,-0.4728 1.433587,-0.879049 2.150263,-1.31876 0.725001,-0.444815 1.425298,-0.932604 2.174767,-1.334826 1.578613,-0.847201 2.118519,-0.949822 3.663442,-1.526836 1.454867,-0.543378 1.597117,-0.556533 2.769272,-1.178566 0.277238,-0.147124 0.556151,-0.293113 0.81865,-0.465161 0.195331,-0.128024 0.342294,-0.328054 0.551124,-0.432623 0.612614,-0.306766 1.664811,-0.210253 2.355527,-0.325371 0.192657,-0.03211 0.218266,-0.102836 0.40812,-0.102836"
       id="path5" />
    <path
       style="fill:none;fill-rule:evenodd;stroke:#ff0000;stroke-width:0.565;stroke-opacity:1;paint-order:markers fill stroke;stroke-dasharray:0.565,1.12999999;stroke-dashoffset:0"
       d="m 35.082268,81.511163 c 1.377407,-0.10685 2.765565,-0.118258 4.132217,-0.320551 0.442164,-0.06545 4.209016,-1.145632 4.741987,-1.299075 2.935303,-0.845068 2.279719,-0.393229 4.449556,-1.866667 0.569365,-0.38663 1.135737,-0.780272 1.669839,-1.214318 1.640157,-1.33291 3.117183,-3.06283 5.137655,-3.873929 1.035015,-0.415499 2.157698,-0.565637 3.236039,-0.850384 0.842957,-0.222594 1.689053,-0.433859 2.527853,-0.671632 0.685745,-0.194386 1.357537,-0.436496 2.04502,-0.624633 0.907624,-0.248378 1.834653,-0.423543 2.738745,-0.684485 1.983676,-0.572535 3.922627,-1.290513 5.893641,-1.90523 1.040519,-0.324517 2.873253,-0.822304 3.792384,-1.2099 0.558652,-0.235583 1.0663,-0.577393 1.597935,-0.868863 0.400836,-0.219755 0.832112,-0.392734 1.199457,-0.6648 0.492045,-0.364426 0.89308,-0.838827 1.362141,-1.232395 0.741868,-0.622466 1.612897,-1.197917 2.423816,-1.738529 0.127548,-0.08503 0.302937,-0.09727 0.411332,-0.205666 0.445098,-0.445095 0.660355,-1.214705 1.234003,-1.542502 0.220134,-0.125791 0.428443,0.08452 0.819052,-0.306089"
       id="path6" />
    <path
       style="fill:none;fill-rule:evenodd;stroke:#ff0000;stroke-width:0.565;stroke-opacity:1;paint-order:markers fill stroke;stroke-dasharray:0.565,1.12999999;stroke-dashoffset:0"
       d="m 65.957605,82.507361 c 0.709078,-0.913206 1.88314,-1.182166 2.750796,-1.873496 0.365962,-0.291592 0.664824,-0.666416 1.05123,-0.93032 1.331777,-0.909566 2.849657,-1.511625 4.256743,-2.299694 0.971233,-0.543963 1.884868,-1.19252 2.882548,-1.686306 1.043112,-0.516277 2.154939,-0.88042 3.225597,-1.336837 10.679744,-4.552709 -5.289929,2.093733 6.071592,-2.409354 0.971677,-0.385119 1.900454,-0.872908 2.8713,-1.260112 0.930847,-0.37125 1.904553,-0.630158 2.83033,-1.013873 1.522074,-0.630867 1.809422,-0.915625 3.07938,-1.731298 0.332327,-0.213445 0.697717,-0.3804 1.002625,-0.63146 0.399955,-0.329322 0.721757,-0.743958 1.099034,-1.099032 0.351219,-0.330552 0.734349,-0.626078 1.085374,-0.956834 0.537287,-0.506256 0.96928,-1.130003 1.562185,-1.569818 0.247171,-0.183348 0.546571,-0.28516 0.804191,-0.453511 0.51466,-0.336323 0.71576,-0.788631 1.17375,-1.155671 0.0591,-0.04737 0.1498,-0.04796 0.20325,-0.101627 0.33607,-0.337386 0.21181,-0.606893 0.3085,-0.922689 0.018,-0.05879 0.11566,-0.05142 0.17715,-0.05142"
       id="path7" />
    <path
       style="fill:none;fill-rule:evenodd;stroke:#ff0000;stroke-width:0.776537;stroke-dasharray:0.776537, 1.55308;stroke-dashoffset:0;stroke-opacity:1;paint-order:markers fill stroke"
       d="m 65.961934,82.328489 c 1.269447,-0.963566 3.371304,-1.247358 4.924628,-1.976814 0.655155,-0.307671 1.190191,-0.703166 1.881963,-0.981623 2.384208,-0.959726 5.101606,-1.594985 7.620655,-2.426514 1.73875,-0.573961 3.374377,-1.258284 5.160491,-1.7793 1.867417,-0.544748 3.857878,-0.928973 5.774632,-1.410559 19.119427,-4.803775 -9.470302,2.209195 10.869667,-2.542222 1.73954,-0.406358 3.4023,-0.921045 5.14037,-1.329603 1.66641,-0.391724 3.40962,-0.664909 5.06699,-1.069785 2.72489,-0.665656 3.23934,-0.966119 5.51287,-1.826773 0.59495,-0.225216 1.24908,-0.401377 1.79494,-0.666283 0.71605,-0.347483 1.29214,-0.784984 1.96757,-1.15964 0.62877,-0.34878 1.31466,-0.660605 1.9431,-1.009601 0.96188,-0.534173 1.73525,-1.192318 2.79669,-1.656386 0.44249,-0.193459 0.97851,-0.300886 1.43971,-0.478521 0.92137,-0.354871 1.2814,-0.832122 2.10131,-1.219403 0.10571,-0.04998 0.26817,-0.0506 0.36387,-0.107232 0.60166,-0.355991 0.37919,-0.64036 0.55229,-0.973572 0.0322,-0.06204 0.2072,-0.05425 0.31715,-0.05425"
       id="path7-5" />
    <path
       style="fill:none;fill-rule:evenodd;stroke:#ff0000;stroke-width:0.429714;stroke-dasharray:0.429714, 0.859427;stroke-dashoffset:0;stroke-opacity:1;paint-order:markers fill stroke"
       d="m 164.40766,84.66545 c 0.33836,-1.106985 0.89861,-1.433017 1.31263,-2.271045 0.17464,-0.353466 0.31726,-0.807827 0.50164,-1.127729 0.63551,-1.102572 1.35982,-1.832384 2.03127,-2.787679 0.46345,-0.65939 0.89944,-1.445567 1.37552,-2.044132 0.49776,-0.62583 1.0283,-1.067242 1.53921,-1.620508 5.09625,-5.518774 -2.5243,2.538013 2.89729,-2.920609 0.46367,-0.466839 0.90687,-1.058135 1.37014,-1.527502 0.44421,-0.450028 0.90885,-0.763875 1.35061,-1.229012 0.72632,-0.764734 0.86344,-1.109917 1.46944,-2.098673 0.15858,-0.258736 0.33294,-0.461119 0.47844,-0.765452 0.19085,-0.399203 0.34442,-0.901823 0.52446,-1.332242 0.16759,-0.400694 0.35041,-0.758928 0.51792,-1.15987 0.25638,-0.613682 0.46253,-1.369785 0.74545,-1.902926 0.11795,-0.222255 0.26082,-0.34567 0.38375,-0.549745 0.24559,-0.407688 0.34155,-0.955975 0.56011,-1.400898 0.0282,-0.05742 0.0715,-0.05814 0.0968,-0.123192 0.16036,-0.408979 0.10107,-0.735674 0.14721,-1.11848 0.009,-0.07126 0.0552,-0.06233 0.0846,-0.06233"
       id="path7-2" />
    <path
       style="fill:none;fill-rule:evenodd;stroke:#ff0000;stroke-width:0.430656;stroke-dasharray:0.430656, 0.861313;stroke-dashoffset:0;stroke-opacity:1;paint-order:markers fill stroke"
       d="m 187.40228,84.850409 c 0.33835,-1.111868 0.89859,-1.439338 1.31261,-2.281063 0.17463,-0.355025 0.31725,-0.81139 0.50163,-1.132704 0.6355,-1.107435 1.35979,-1.840466 2.03123,-2.799975 0.46344,-0.662298 0.89943,-1.451943 1.37549,-2.053149 0.49775,-0.62859 1.02829,-1.07195 1.53919,-1.627655 5.09615,-5.543118 -2.52426,2.549208 2.89724,-2.933493 0.46366,-0.468898 0.90685,-1.062803 1.37011,-1.534239 0.4442,-0.452013 0.90883,-0.767245 1.35058,-1.234433 0.72631,-0.768108 0.86342,-1.114813 1.46941,-2.107931 0.15858,-0.259877 0.33293,-0.463153 0.47844,-0.768829 0.19084,-0.400964 0.34441,-0.905801 0.52444,-1.338118 0.16759,-0.402461 0.3504,-0.762276 0.51791,-1.164986 0.25639,-0.61639 0.46252,-1.375827 0.74544,-1.91132 0.11795,-0.223235 0.26082,-0.347195 0.38374,-0.55217 0.24559,-0.409486 0.34155,-0.960192 0.5601,-1.407078 0.0282,-0.05767 0.0715,-0.05839 0.0968,-0.123735 0.16036,-0.410783 0.10108,-0.73892 0.14721,-1.123414 0.009,-0.07157 0.0552,-0.0626 0.0846,-0.0626"
       id="path7-2-98" />
    <path
       style="fill:none;fill-rule:evenodd;stroke:#ff0000;stroke-width:0.331667;stroke-dasharray:0.331667, 0.663334;stroke-dashoffset:0;stroke-opacity:1;paint-order:markers fill stroke"
       d="m 188.20022,84.358608 c 0.33899,-0.658232 0.90028,-0.852096 1.31508,-1.350402 0.17497,-0.210177 0.31785,-0.480347 0.50258,-0.670567 0.63669,-0.655608 1.36235,-1.089567 2.03505,-1.657601 0.46432,-0.392085 0.90111,-0.859559 1.37808,-1.215477 0.49868,-0.372128 1.03022,-0.634599 1.54208,-0.963581 5.10575,-3.281557 -2.529,1.509146 2.9027,-1.736644 0.46453,-0.277591 0.90856,-0.629185 1.37269,-0.908278 0.44503,-0.267595 0.91053,-0.454214 1.35312,-0.730792 0.72767,-0.454724 0.86504,-0.659975 1.47218,-1.247907 0.15887,-0.153849 0.33356,-0.274189 0.47933,-0.455151 0.19121,-0.237373 0.34506,-0.536239 0.52543,-0.792174 0.16791,-0.238259 0.35107,-0.451272 0.51889,-0.689678 0.25687,-0.364906 0.46339,-0.814497 0.74684,-1.131512 0.11817,-0.132157 0.26131,-0.205542 0.38446,-0.326888 0.24606,-0.242419 0.3422,-0.568439 0.56116,-0.832999 0.0283,-0.03414 0.0716,-0.03457 0.0971,-0.07325 0.16067,-0.243186 0.10126,-0.437445 0.14749,-0.665067 0.009,-0.04238 0.0553,-0.03706 0.0847,-0.03706"
       id="path7-2-3" />
    <path
       style="fill:none;fill-rule:evenodd;stroke:#ff0000;stroke-width:0.242895;stroke-dasharray:0.242895, 0.485789;stroke-dashoffset:0;stroke-opacity:1;paint-order:markers fill stroke"
       d="m 187.92419,84.985862 c 0.35655,-0.335638 0.94692,-0.434491 1.38322,-0.688581 0.18403,-0.107171 0.33431,-0.244933 0.52862,-0.341928 0.66968,-0.334299 1.43293,-0.555579 2.14049,-0.845224 0.48838,-0.199927 0.9478,-0.438296 1.44948,-0.619781 0.52453,-0.189751 1.08361,-0.323587 1.62198,-0.491338 5.3703,-1.673293 -2.66004,0.769526 3.05311,-0.885529 0.48859,-0.141545 0.95564,-0.320827 1.44381,-0.463138 0.46809,-0.136449 0.95771,-0.231608 1.42323,-0.372637 0.76538,-0.231867 0.90986,-0.336526 1.54846,-0.636318 0.16711,-0.07845 0.35085,-0.139811 0.50417,-0.232084 0.20111,-0.12104 0.36294,-0.273433 0.55266,-0.403936 0.1766,-0.12149 0.36926,-0.230108 0.54577,-0.351673 0.27018,-0.186068 0.4874,-0.415319 0.78555,-0.576967 0.12429,-0.06739 0.27484,-0.104808 0.40437,-0.166684 0.25881,-0.123611 0.35993,-0.28985 0.59024,-0.424752 0.0298,-0.01741 0.0753,-0.01762 0.10216,-0.03735 0.16899,-0.124003 0.1065,-0.223056 0.15513,-0.339123 0.009,-0.02161 0.0581,-0.0189 0.0891,-0.0189"
       id="path7-2-3-4" />
    <path
       style="fill:none;fill-rule:evenodd;stroke:#0000ff;stroke-width:0.03107;stroke-dasharray:0.03107, 0.0621402;stroke-dashoffset:0;stroke-opacity:1;paint-order:markers fill stroke"
       d="m 135.25526,79.265708 c 0.02,-0.09799 0.0531,-0.12685 0.0775,-0.201031 0.0104,-0.03129 0.0188,-0.07151 0.0296,-0.09983 0.0375,-0.0976 0.0803,-0.162202 0.11997,-0.246764 0.0274,-0.05837 0.0531,-0.127961 0.0812,-0.180946 0.0294,-0.0554 0.0608,-0.09447 0.0909,-0.143446 0.30098,-0.488519 -0.14908,0.224663 0.17111,-0.258531 0.0274,-0.04133 0.0535,-0.09367 0.0809,-0.135213 0.0262,-0.03983 0.0537,-0.06762 0.0798,-0.108792 0.0429,-0.06769 0.051,-0.09825 0.0868,-0.185773 0.009,-0.02291 0.0197,-0.04082 0.0282,-0.06776 0.0113,-0.03534 0.0203,-0.07983 0.031,-0.11793 0.01,-0.03547 0.0207,-0.06718 0.0306,-0.102671 0.0151,-0.05432 0.0273,-0.121253 0.044,-0.168446 0.007,-0.01967 0.0154,-0.03059 0.0227,-0.04866 0.0145,-0.03609 0.0202,-0.08462 0.0331,-0.124007 0.002,-0.0051 0.004,-0.0052 0.006,-0.0109 0.009,-0.0362 0.006,-0.06512 0.009,-0.09901 5.6e-4,-0.0063 0.003,-0.0055 0.005,-0.0055"
       id="path7-2-9" />
    <path
       style="fill:none;fill-rule:evenodd;stroke:#0000ff;stroke-width:0.0244276;stroke-dasharray:0.0244276, 0.0488551;stroke-dashoffset:0;stroke-opacity:1;paint-order:markers fill stroke"
       d="m 133.89583,75.254144 c 0.0185,-0.06526 0.0492,-0.08448 0.072,-0.133887 0.01,-0.02084 0.0174,-0.04762 0.0275,-0.06648 0.0348,-0.065 0.0745,-0.108026 0.11134,-0.164344 0.0254,-0.03887 0.0493,-0.08522 0.0754,-0.12051 0.0273,-0.03689 0.0564,-0.06292 0.0844,-0.09553 0.27935,-0.325353 -0.13837,0.149625 0.15882,-0.172181 0.0254,-0.02752 0.0497,-0.06238 0.0751,-0.09005 0.0244,-0.02653 0.0498,-0.04504 0.074,-0.07245 0.0398,-0.04508 0.0474,-0.06543 0.0805,-0.123725 0.009,-0.01525 0.0183,-0.02718 0.0262,-0.04513 0.0105,-0.02354 0.0189,-0.05317 0.0287,-0.07854 0.009,-0.02362 0.0192,-0.04474 0.0284,-0.06838 0.014,-0.03618 0.0254,-0.08075 0.0409,-0.112185 0.006,-0.0131 0.0143,-0.02038 0.021,-0.03241 0.0135,-0.02404 0.0188,-0.05636 0.0307,-0.08259 0.002,-0.0034 0.004,-0.0034 0.006,-0.0073 0.009,-0.02411 0.006,-0.04337 0.008,-0.06594 5.5e-4,-0.0042 0.003,-0.0037 0.004,-0.0037"
       id="path7-2-9-1" />
    <path
       style="fill:none;fill-rule:evenodd;stroke:#0000ff;stroke-width:0.0399864;stroke-dasharray:0.0399864, 0.0799733;stroke-dashoffset:0;stroke-opacity:1;paint-order:markers fill stroke"
       d="m 136.91228,80.870302 c 0.0387,-0.08376 0.10284,-0.108425 0.15022,-0.17183 0.02,-0.02674 0.0363,-0.06112 0.0574,-0.08533 0.0727,-0.08342 0.15562,-0.138641 0.23246,-0.210921 0.053,-0.04989 0.10294,-0.109374 0.15743,-0.154662 0.057,-0.04735 0.11768,-0.08075 0.17615,-0.122611 0.58324,-0.41756 -0.28889,0.192031 0.33158,-0.220978 0.0531,-0.03532 0.10379,-0.08006 0.15681,-0.115574 0.0508,-0.03405 0.10401,-0.05779 0.15457,-0.09299 0.0831,-0.05786 0.0988,-0.08398 0.16817,-0.15879 0.0181,-0.01958 0.0381,-0.03489 0.0548,-0.05792 0.0219,-0.0302 0.0394,-0.06823 0.06,-0.1008 0.0192,-0.03031 0.0401,-0.05742 0.0593,-0.08776 0.0293,-0.04643 0.0529,-0.10364 0.0853,-0.143979 0.0135,-0.01682 0.0299,-0.02616 0.0439,-0.0416 0.0281,-0.03084 0.0391,-0.07233 0.0641,-0.105994 0.003,-0.0043 0.008,-0.0044 0.0111,-0.0093 0.0184,-0.03094 0.0116,-0.05566 0.0168,-0.08463 0.001,-0.0054 0.006,-0.0047 0.01,-0.0047"
       id="path7-2-9-1-3" />
    <path
       style="fill:none;fill-rule:evenodd;stroke:#0000ff;stroke-width:0.0244276;stroke-dasharray:0.0244276, 0.0488551;stroke-dashoffset:0;stroke-opacity:1;paint-order:markers fill stroke"
       d="m 138.262,74.387631 c 0.0185,-0.06526 0.0492,-0.08448 0.0719,-0.133887 0.01,-0.02083 0.0174,-0.04762 0.0275,-0.06648 0.0348,-0.065 0.0745,-0.108026 0.11135,-0.164344 0.0254,-0.03887 0.0493,-0.08522 0.0754,-0.12051 0.0273,-0.03689 0.0564,-0.06292 0.0844,-0.09553 0.27934,-0.325353 -0.13837,0.149625 0.15881,-0.172181 0.0254,-0.02752 0.0497,-0.06238 0.0751,-0.09005 0.0244,-0.02653 0.0498,-0.04504 0.074,-0.07246 0.0398,-0.04508 0.0474,-0.06543 0.0805,-0.123725 0.009,-0.01525 0.0183,-0.02718 0.0262,-0.04513 0.0105,-0.02354 0.0189,-0.05316 0.0287,-0.07854 0.009,-0.02362 0.0192,-0.04474 0.0284,-0.06838 0.014,-0.03618 0.0254,-0.08075 0.0409,-0.112185 0.006,-0.0131 0.0143,-0.02038 0.021,-0.03241 0.0135,-0.02404 0.0188,-0.05636 0.0307,-0.08259 0.002,-0.0034 0.004,-0.0034 0.006,-0.0073 0.009,-0.02411 0.006,-0.04337 0.008,-0.06594 5.5e-4,-0.0042 0.003,-0.0037 0.004,-0.0037"
       id="path7-2-9-1-5" />
    <path
       style="fill:none;fill-rule:evenodd;stroke:#0000ff;stroke-width:0.03107;stroke-dasharray:0.03107, 0.0621402;stroke-dashoffset:0;stroke-opacity:1;paint-order:markers fill stroke"
       d="m 133.08216,82.070022 c 0.02,-0.09799 0.0531,-0.126849 0.0775,-0.201031 0.0103,-0.03129 0.0188,-0.07151 0.0296,-0.09983 0.0375,-0.0976 0.0803,-0.162201 0.11997,-0.246764 0.0274,-0.05837 0.0531,-0.127961 0.0812,-0.180946 0.0294,-0.0554 0.0608,-0.09447 0.0909,-0.143446 0.30098,-0.488518 -0.14908,0.224664 0.17111,-0.25853 0.0274,-0.04133 0.0535,-0.09367 0.0809,-0.135214 0.0262,-0.03983 0.0537,-0.06762 0.0798,-0.108792 0.0429,-0.06769 0.051,-0.09825 0.0868,-0.185773 0.009,-0.02291 0.0197,-0.04082 0.0282,-0.06776 0.0113,-0.03534 0.0203,-0.07983 0.031,-0.117929 0.01,-0.03547 0.0207,-0.06718 0.0306,-0.102672 0.0151,-0.05432 0.0273,-0.121252 0.044,-0.168446 0.007,-0.01967 0.0154,-0.0306 0.0227,-0.04866 0.0145,-0.03609 0.0202,-0.08462 0.0331,-0.124007 0.002,-0.0051 0.004,-0.0052 0.006,-0.0109 0.009,-0.0362 0.006,-0.06512 0.009,-0.09901 5.6e-4,-0.0063 0.003,-0.0055 0.005,-0.0055"
       id="path7-2-9-6" />
    <path
       style="fill:none;fill-rule:evenodd;stroke:#0000ff;stroke-width:0.0244276;stroke-dasharray:0.0244276, 0.0488551;stroke-dashoffset:0;stroke-opacity:1;paint-order:markers fill stroke"
       d="m 131.72273,78.058458 c 0.0185,-0.06526 0.0492,-0.08448 0.0719,-0.133887 0.01,-0.02083 0.0174,-0.04762 0.0275,-0.06648 0.0348,-0.065 0.0745,-0.108026 0.11134,-0.164343 0.0254,-0.03887 0.0493,-0.08522 0.0754,-0.12051 0.0273,-0.03689 0.0564,-0.06292 0.0844,-0.09553 0.27935,-0.325353 -0.13837,0.149625 0.15882,-0.172181 0.0254,-0.02752 0.0497,-0.06238 0.0751,-0.09005 0.0244,-0.02653 0.0498,-0.04504 0.074,-0.07246 0.0398,-0.04508 0.0474,-0.06543 0.0806,-0.123725 0.009,-0.01525 0.0183,-0.02718 0.0262,-0.04513 0.0105,-0.02354 0.0189,-0.05317 0.0287,-0.07854 0.009,-0.02362 0.0192,-0.04474 0.0284,-0.06838 0.014,-0.03618 0.0254,-0.08075 0.0409,-0.112184 0.006,-0.0131 0.0143,-0.02038 0.021,-0.03241 0.0135,-0.02404 0.0188,-0.05636 0.0307,-0.08259 0.002,-0.0034 0.004,-0.0034 0.006,-0.0073 0.009,-0.02411 0.006,-0.04337 0.008,-0.06594 5.5e-4,-0.0042 0.003,-0.0037 0.004,-0.0037"
       id="path7-2-9-1-4" />
    <path
       style="fill:none;fill-rule:evenodd;stroke:#0000ff;stroke-width:0.0412862;stroke-dasharray:0.0412862, 0.0825728;stroke-dashoffset:0;stroke-opacity:1;paint-order:markers fill stroke"
       d="m 136.14638,80.36481 c 0.0343,-0.100714 0.0912,-0.130376 0.13319,-0.20662 0.0177,-0.03216 0.0322,-0.0735 0.0509,-0.102601 0.0645,-0.100311 0.13798,-0.166709 0.20611,-0.253622 0.047,-0.05999 0.0913,-0.131517 0.13956,-0.185975 0.0505,-0.05694 0.10434,-0.0971 0.15618,-0.147433 0.51708,-0.502098 -0.25613,0.230908 0.29397,-0.265717 0.0471,-0.04247 0.092,-0.09627 0.13902,-0.138972 0.0451,-0.04094 0.0922,-0.0695 0.13704,-0.111815 0.0737,-0.06958 0.0876,-0.10098 0.14909,-0.190937 0.0161,-0.02354 0.0338,-0.04196 0.0486,-0.06964 0.0194,-0.03632 0.035,-0.08205 0.0532,-0.121207 0.017,-0.03645 0.0356,-0.06905 0.0525,-0.105525 0.026,-0.05583 0.0469,-0.124622 0.0756,-0.173128 0.012,-0.02022 0.0265,-0.03145 0.0389,-0.05001 0.0249,-0.03709 0.0346,-0.08698 0.0568,-0.127454 0.003,-0.0052 0.007,-0.0053 0.01,-0.01121 0.0163,-0.03721 0.0103,-0.06693 0.015,-0.10176 6.2e-4,-0.0065 0.006,-0.0057 0.009,-0.0057"
       id="path7-2-9-1-1-7" />
    <path
       style="fill:none;fill-rule:evenodd;stroke:#0000ff;stroke-width:0.0399864;stroke-dasharray:0.0399864, 0.0799733;stroke-dashoffset:0;stroke-opacity:1;paint-order:markers fill stroke"
       d="m 143.5935,76.24851 c 0.0387,-0.08376 0.10284,-0.108424 0.15022,-0.17183 0.02,-0.02674 0.0363,-0.06112 0.0574,-0.08533 0.0727,-0.08342 0.15562,-0.138641 0.23247,-0.210921 0.053,-0.04989 0.10293,-0.109374 0.15742,-0.154662 0.057,-0.04735 0.11768,-0.08075 0.17615,-0.12261 0.58324,-0.417561 -0.28889,0.19203 0.33158,-0.220979 0.053,-0.03532 0.10379,-0.08006 0.15681,-0.115574 0.0508,-0.03405 0.10401,-0.05779 0.15457,-0.09299 0.0831,-0.05786 0.0988,-0.08398 0.16817,-0.158789 0.0181,-0.01958 0.0381,-0.03489 0.0548,-0.05792 0.0219,-0.0302 0.0394,-0.06823 0.06,-0.1008 0.0192,-0.03031 0.0401,-0.05742 0.0593,-0.08776 0.0293,-0.04643 0.0529,-0.10364 0.0853,-0.143979 0.0135,-0.01682 0.0299,-0.02615 0.0439,-0.0416 0.0281,-0.03084 0.0391,-0.07233 0.0641,-0.105994 0.003,-0.0043 0.008,-0.0044 0.0111,-0.0093 0.0184,-0.03094 0.0116,-0.05566 0.0168,-0.08463 0.001,-0.0054 0.006,-0.0047 0.01,-0.0047"
       id="path7-2-9-1-3-4" />
    <path
       style="fill:none;fill-rule:evenodd;stroke:#0000ff;stroke-width:0.03107;stroke-dasharray:0.03107, 0.0621402;stroke-dashoffset:0;stroke-opacity:1;paint-order:markers fill stroke"
       d="m 137.44833,81.203509 c 0.02,-0.09799 0.0531,-0.126849 0.0775,-0.201031 0.0104,-0.03129 0.0188,-0.07151 0.0296,-0.09983 0.0375,-0.0976 0.0803,-0.162202 0.11997,-0.246764 0.0274,-0.05837 0.0531,-0.127961 0.0812,-0.180946 0.0294,-0.0554 0.0608,-0.09447 0.0909,-0.143446 0.30098,-0.488518 -0.14908,0.224664 0.17111,-0.258531 0.0274,-0.04133 0.0535,-0.09367 0.0809,-0.135213 0.0262,-0.03983 0.0536,-0.06762 0.0798,-0.108792 0.0429,-0.06769 0.051,-0.09825 0.0868,-0.185773 0.009,-0.02291 0.0197,-0.04082 0.0282,-0.06776 0.0113,-0.03534 0.0203,-0.07983 0.031,-0.11793 0.01,-0.03547 0.0207,-0.06718 0.0306,-0.102671 0.0152,-0.05432 0.0273,-0.121252 0.044,-0.168446 0.007,-0.01967 0.0154,-0.0306 0.0227,-0.04866 0.0145,-0.03609 0.0202,-0.08462 0.0331,-0.124007 0.002,-0.0051 0.004,-0.0052 0.006,-0.0109 0.009,-0.0362 0.006,-0.06512 0.009,-0.09901 5.5e-4,-0.0063 0.003,-0.0055 0.005,-0.0055"
       id="path7-2-9-0-8" />
    <path
       style="fill:none;fill-rule:evenodd;stroke:#0000ff;stroke-width:0.0244276;stroke-dasharray:0.0244276, 0.0488551;stroke-dashoffset:0;stroke-opacity:1;paint-order:markers fill stroke"
       d="m 136.0889,77.191945 c 0.0185,-0.06526 0.0492,-0.08448 0.072,-0.133887 0.01,-0.02083 0.0174,-0.04762 0.0275,-0.06648 0.0348,-0.065 0.0745,-0.108027 0.11134,-0.164345 0.0254,-0.03887 0.0493,-0.08522 0.0754,-0.120509 0.0273,-0.03689 0.0564,-0.06292 0.0844,-0.09553 0.27935,-0.325353 -0.13837,0.149625 0.15882,-0.172181 0.0254,-0.02752 0.0497,-0.06238 0.0751,-0.09005 0.0244,-0.02653 0.0498,-0.04504 0.074,-0.07246 0.0398,-0.04508 0.0474,-0.06543 0.0805,-0.123724 0.009,-0.01525 0.0183,-0.02718 0.0262,-0.04513 0.0105,-0.02354 0.0189,-0.05317 0.0287,-0.07854 0.009,-0.02362 0.0192,-0.04474 0.0284,-0.06838 0.014,-0.03618 0.0254,-0.08075 0.0409,-0.112184 0.006,-0.01311 0.0143,-0.02038 0.021,-0.03241 0.0135,-0.02404 0.0188,-0.05636 0.0307,-0.08259 0.002,-0.0034 0.004,-0.0034 0.006,-0.0073 0.009,-0.02411 0.006,-0.04337 0.008,-0.06594 5.6e-4,-0.0042 0.003,-0.0037 0.004,-0.0037"
       id="path7-2-9-1-5-5" />
    <path
       style="fill:none;fill-rule:evenodd;stroke:#0000ff;stroke-width:0.0399864;stroke-dasharray:0.0399864, 0.0799733;stroke-dashoffset:0;stroke-opacity:1;paint-order:markers fill stroke"
       d="m 139.10535,82.808103 c 0.0387,-0.08376 0.10284,-0.108424 0.15022,-0.17183 0.02,-0.02674 0.0363,-0.06112 0.0574,-0.08533 0.0727,-0.08342 0.15562,-0.138641 0.23247,-0.21092 0.053,-0.04989 0.10293,-0.109375 0.15742,-0.154663 0.057,-0.04735 0.11768,-0.08075 0.17616,-0.122611 0.58323,-0.41756 -0.2889,0.192031 0.33157,-0.220978 0.053,-0.03532 0.10379,-0.08006 0.15681,-0.115574 0.0508,-0.03405 0.10401,-0.05779 0.15457,-0.09299 0.0831,-0.05786 0.0988,-0.08398 0.16817,-0.15879 0.0181,-0.01958 0.0381,-0.03489 0.0548,-0.05791 0.0219,-0.0302 0.0394,-0.06823 0.06,-0.1008 0.0192,-0.03031 0.0401,-0.05742 0.0593,-0.08776 0.0293,-0.04643 0.0529,-0.10364 0.0853,-0.143979 0.0135,-0.01682 0.0298,-0.02615 0.0439,-0.0416 0.0281,-0.03084 0.0391,-0.07233 0.0641,-0.105994 0.003,-0.0043 0.008,-0.0044 0.0111,-0.0093 0.0184,-0.03095 0.0116,-0.05566 0.0168,-0.08463 0.001,-0.0054 0.006,-0.0047 0.01,-0.0047"
       id="path7-2-9-1-3-7-2" />
    <path
       style="fill:none;fill-rule:evenodd;stroke:#0000ff;stroke-width:0.03107;stroke-dasharray:0.03107, 0.0621402;stroke-dashoffset:0;stroke-opacity:1;paint-order:markers fill stroke"
       d="m 144.71827,75.979605 c 0.02,-0.09799 0.0531,-0.12685 0.0775,-0.201031 0.0103,-0.03129 0.0188,-0.07151 0.0296,-0.09983 0.0375,-0.0976 0.0803,-0.162202 0.11996,-0.246765 0.0274,-0.05837 0.0531,-0.12796 0.0812,-0.180945 0.0294,-0.0554 0.0607,-0.09447 0.0909,-0.143446 0.30099,-0.488519 -0.14908,0.224664 0.17112,-0.258531 0.0274,-0.04133 0.0535,-0.09367 0.0809,-0.135214 0.0262,-0.03983 0.0537,-0.06762 0.0798,-0.108791 0.0429,-0.06769 0.051,-0.09825 0.0868,-0.185773 0.009,-0.02291 0.0197,-0.04082 0.0282,-0.06776 0.0113,-0.03534 0.0203,-0.07983 0.031,-0.117929 0.01,-0.03547 0.0207,-0.06718 0.0306,-0.102671 0.0151,-0.05432 0.0273,-0.121253 0.0441,-0.168446 0.007,-0.01967 0.0154,-0.0306 0.0227,-0.04866 0.0145,-0.03609 0.0202,-0.08462 0.0331,-0.124007 0.002,-0.0051 0.004,-0.0052 0.006,-0.0109 0.009,-0.0362 0.006,-0.06512 0.009,-0.09901 5.5e-4,-0.0063 0.003,-0.0055 0.005,-0.0055"
       id="path7-2-9-64" />
    <path
       style="fill:none;fill-rule:evenodd;stroke:#0000ff;stroke-width:0.0244276;stroke-dasharray:0.0244276, 0.0488551;stroke-dashoffset:0;stroke-opacity:1;paint-order:markers fill stroke"
       d="m 134.50452,79.394146 c 0.0185,-0.06526 0.0492,-0.08448 0.072,-0.133886 0.01,-0.02083 0.0174,-0.04762 0.0275,-0.06648 0.0348,-0.065 0.0745,-0.108026 0.11134,-0.164344 0.0254,-0.03887 0.0493,-0.08522 0.0754,-0.12051 0.0273,-0.03689 0.0563,-0.06292 0.0844,-0.09553 0.27935,-0.325352 -0.13837,0.149626 0.15881,-0.172181 0.0254,-0.02752 0.0497,-0.06238 0.0751,-0.09005 0.0244,-0.02653 0.0498,-0.04504 0.074,-0.07246 0.0398,-0.04508 0.0474,-0.06543 0.0805,-0.123724 0.009,-0.01525 0.0183,-0.02718 0.0262,-0.04513 0.0105,-0.02354 0.0189,-0.05317 0.0287,-0.07854 0.009,-0.02362 0.0192,-0.04474 0.0284,-0.06838 0.014,-0.03618 0.0254,-0.08075 0.0409,-0.112185 0.006,-0.0131 0.0143,-0.02038 0.021,-0.03241 0.0135,-0.02404 0.0188,-0.05636 0.0307,-0.08259 0.002,-0.0034 0.004,-0.0034 0.006,-0.0073 0.009,-0.02411 0.006,-0.04337 0.008,-0.06594 5.6e-4,-0.0042 0.003,-0.0037 0.004,-0.0037"
       id="path7-2-9-1-6" />
    <path
       style="fill:none;fill-rule:evenodd;stroke:#0000ff;stroke-width:0.0412862;stroke-dasharray:0.0412862, 0.0825728;stroke-dashoffset:0;stroke-opacity:1;paint-order:markers fill stroke"
       d="m 138.92818,81.700498 c 0.0343,-0.100713 0.0912,-0.130376 0.13318,-0.206619 0.0177,-0.03216 0.0322,-0.0735 0.0509,-0.102601 0.0645,-0.100312 0.13798,-0.16671 0.2061,-0.253623 0.0471,-0.05999 0.0913,-0.131517 0.13957,-0.185975 0.0505,-0.05694 0.10434,-0.0971 0.15618,-0.147433 0.51708,-0.502098 -0.25613,0.230908 0.29397,-0.265717 0.0471,-0.04247 0.092,-0.09627 0.13902,-0.138972 0.0451,-0.04094 0.0922,-0.0695 0.13704,-0.111815 0.0737,-0.06958 0.0876,-0.10098 0.14909,-0.190936 0.0161,-0.02354 0.0338,-0.04196 0.0485,-0.06964 0.0194,-0.03632 0.035,-0.08205 0.0532,-0.121208 0.017,-0.03645 0.0356,-0.06905 0.0525,-0.105525 0.026,-0.05583 0.0469,-0.124622 0.0756,-0.173127 0.012,-0.02022 0.0264,-0.03145 0.0389,-0.05002 0.0249,-0.03709 0.0346,-0.08698 0.0568,-0.127454 0.003,-0.0052 0.007,-0.0053 0.01,-0.01121 0.0163,-0.03721 0.0103,-0.06693 0.015,-0.101758 6.2e-4,-0.0065 0.006,-0.0057 0.009,-0.0057"
       id="path7-2-9-1-1-2" />
    <path
       style="fill:none;fill-rule:evenodd;stroke:#0000ff;stroke-width:0.03107;stroke-dasharray:0.03107, 0.0621402;stroke-dashoffset:0;stroke-opacity:1;paint-order:markers fill stroke"
       d="m 140.23012,82.539198 c 0.0199,-0.09799 0.0531,-0.12685 0.0775,-0.201032 0.0103,-0.03128 0.0187,-0.07151 0.0296,-0.09983 0.0375,-0.0976 0.0803,-0.162201 0.11996,-0.246764 0.0274,-0.05837 0.0531,-0.12796 0.0812,-0.180945 0.0294,-0.0554 0.0608,-0.09447 0.0909,-0.143446 0.30098,-0.488519 -0.14909,0.224663 0.17111,-0.258531 0.0274,-0.04133 0.0535,-0.09367 0.0809,-0.135214 0.0262,-0.03983 0.0536,-0.06762 0.0798,-0.108791 0.0429,-0.06769 0.051,-0.09825 0.0868,-0.185774 0.009,-0.02291 0.0197,-0.04082 0.0282,-0.06776 0.0113,-0.03534 0.0203,-0.07983 0.031,-0.117929 0.01,-0.03547 0.0207,-0.06718 0.0306,-0.102671 0.0151,-0.05432 0.0273,-0.121253 0.0441,-0.168446 0.007,-0.01967 0.0154,-0.0306 0.0227,-0.04866 0.0145,-0.03609 0.0202,-0.08462 0.0331,-0.124007 0.002,-0.0051 0.004,-0.0052 0.006,-0.0109 0.009,-0.0362 0.006,-0.06512 0.009,-0.09901 5.6e-4,-0.0063 0.003,-0.0055 0.005,-0.0055"
       id="path7-2-9-0-9" />
    <path
       style="fill:none;fill-rule:evenodd;stroke:#0000ff;stroke-width:0.0412862;stroke-dasharray:0.0412862, 0.0825728;stroke-dashoffset:0;stroke-opacity:1;paint-order:markers fill stroke"
       d="m 143.29435,80.833985 c 0.0343,-0.100714 0.0912,-0.130376 0.13318,-0.206619 0.0177,-0.03216 0.0322,-0.0735 0.0509,-0.102601 0.0645,-0.100312 0.13798,-0.16671 0.2061,-0.253623 0.0471,-0.05999 0.0913,-0.131517 0.13957,-0.185974 0.0505,-0.05694 0.10434,-0.0971 0.15617,-0.147434 0.51709,-0.502097 -0.25612,0.230908 0.29398,-0.265717 0.0471,-0.04247 0.092,-0.09627 0.13902,-0.138972 0.0451,-0.04094 0.0922,-0.0695 0.13704,-0.111815 0.0737,-0.06958 0.0876,-0.10098 0.14909,-0.190936 0.0161,-0.02354 0.0338,-0.04196 0.0485,-0.06964 0.0194,-0.03632 0.035,-0.08205 0.0532,-0.121207 0.017,-0.03645 0.0355,-0.06905 0.0525,-0.105525 0.026,-0.05583 0.0469,-0.124622 0.0756,-0.173127 0.012,-0.02022 0.0264,-0.03145 0.0389,-0.05002 0.0249,-0.03709 0.0346,-0.08697 0.0568,-0.127454 0.003,-0.0052 0.007,-0.0053 0.01,-0.01121 0.0163,-0.03721 0.0103,-0.06693 0.015,-0.101758 6.2e-4,-0.0065 0.006,-0.0057 0.009,-0.0057"
       id="path7-2-9-1-1-6-0" />
    <path
       style="fill:none;fill-rule:evenodd;stroke:#0000ff;stroke-width:0.03107;stroke-dasharray:0.03107, 0.0621402;stroke-dashoffset:0;stroke-opacity:1;paint-order:markers fill stroke"
       d="m 134.32665,77.176345 c 0.0199,-0.09799 0.0531,-0.12685 0.0775,-0.201032 0.0103,-0.03129 0.0188,-0.07151 0.0297,-0.09983 0.0375,-0.0976 0.0803,-0.162201 0.11996,-0.246764 0.0274,-0.05837 0.0531,-0.12796 0.0812,-0.180945 0.0294,-0.0554 0.0608,-0.09447 0.0909,-0.143446 0.30098,-0.488519 -0.14908,0.224663 0.17111,-0.258531 0.0274,-0.04133 0.0535,-0.09366 0.0809,-0.135213 0.0262,-0.03983 0.0537,-0.06762 0.0798,-0.108792 0.0429,-0.06769 0.051,-0.09825 0.0868,-0.185773 0.009,-0.02291 0.0197,-0.04082 0.0283,-0.06776 0.0113,-0.03534 0.0203,-0.07983 0.031,-0.117929 0.01,-0.03547 0.0207,-0.06718 0.0306,-0.102671 0.0151,-0.05432 0.0273,-0.121253 0.0441,-0.168447 0.007,-0.01967 0.0154,-0.0306 0.0227,-0.04866 0.0145,-0.03609 0.0202,-0.08462 0.0331,-0.124007 0.002,-0.0051 0.004,-0.0052 0.006,-0.0109 0.009,-0.0362 0.006,-0.06512 0.009,-0.09901 5.5e-4,-0.0063 0.003,-0.0055 0.005,-0.0055"
       id="path7-2-9-13" />
    <path
       style="fill:none;fill-rule:evenodd;stroke:#0000ff;stroke-width:0.0412862;stroke-dasharray:0.0412862, 0.0825728;stroke-dashoffset:0;stroke-opacity:1;paint-order:markers fill stroke"
       d="m 137.39086,75.471132 c 0.0343,-0.100713 0.0912,-0.130376 0.13319,-0.206619 0.0177,-0.03216 0.0322,-0.0735 0.0509,-0.102601 0.0645,-0.100312 0.13797,-0.16671 0.2061,-0.253623 0.0471,-0.05999 0.0913,-0.131517 0.13957,-0.185974 0.0505,-0.05694 0.10433,-0.0971 0.15617,-0.147434 0.51709,-0.502097 -0.25612,0.230908 0.29397,-0.265717 0.0471,-0.04247 0.092,-0.09627 0.13903,-0.138971 0.0451,-0.04094 0.0922,-0.0695 0.13703,-0.111816 0.0737,-0.06958 0.0876,-0.10098 0.1491,-0.190937 0.0161,-0.02354 0.0338,-0.04196 0.0485,-0.06964 0.0194,-0.03632 0.035,-0.08205 0.0532,-0.121208 0.017,-0.03645 0.0356,-0.06905 0.0525,-0.105525 0.026,-0.05583 0.0469,-0.124622 0.0756,-0.173128 0.012,-0.02022 0.0264,-0.03144 0.0389,-0.05001 0.0249,-0.03709 0.0346,-0.08697 0.0568,-0.127453 0.003,-0.0052 0.007,-0.0053 0.01,-0.01121 0.0163,-0.03721 0.0103,-0.06693 0.015,-0.101759 6.2e-4,-0.0065 0.006,-0.0057 0.009,-0.0057"
       id="path7-2-9-1-1-72" />
    <path
       style="fill:none;fill-rule:evenodd;stroke:#0000ff;stroke-width:0.0412862;stroke-dasharray:0.0412862, 0.0825728;stroke-dashoffset:0;stroke-opacity:1;paint-order:markers fill stroke"
       d="m 141.75704,74.604619 c 0.0343,-0.100713 0.0912,-0.130376 0.13318,-0.206619 0.0177,-0.03216 0.0322,-0.0735 0.0509,-0.102601 0.0645,-0.100312 0.13797,-0.16671 0.2061,-0.253623 0.047,-0.05999 0.0913,-0.131517 0.13957,-0.185975 0.0505,-0.05694 0.10433,-0.0971 0.15617,-0.147433 0.51709,-0.502098 -0.25612,0.230908 0.29397,-0.265717 0.047,-0.04247 0.092,-0.09627 0.13903,-0.138971 0.0451,-0.04094 0.0922,-0.0695 0.13703,-0.111816 0.0737,-0.06958 0.0876,-0.10098 0.1491,-0.190937 0.0161,-0.02354 0.0338,-0.04196 0.0485,-0.06964 0.0194,-0.03632 0.035,-0.08205 0.0532,-0.121208 0.017,-0.03645 0.0356,-0.06905 0.0525,-0.105525 0.026,-0.05583 0.0469,-0.124622 0.0756,-0.173128 0.012,-0.02022 0.0264,-0.03144 0.0389,-0.05001 0.0249,-0.03709 0.0346,-0.08697 0.0568,-0.127453 0.003,-0.0052 0.007,-0.0053 0.01,-0.01121 0.0163,-0.03721 0.0103,-0.06693 0.015,-0.101759 6.2e-4,-0.0065 0.006,-0.0057 0.009,-0.0057"
       id="path7-2-9-1-1-6-02" />
    <path
       style="fill:none;fill-rule:evenodd;stroke:#0000ff;stroke-width:0.03107;stroke-dasharray:0.03107, 0.0621402;stroke-dashoffset:0;stroke-opacity:1;paint-order:markers fill stroke"
       d="m 132.83037,77.515377 c 0.0199,-0.09799 0.0531,-0.12685 0.0775,-0.201032 0.0103,-0.03129 0.0188,-0.07151 0.0296,-0.09983 0.0375,-0.0976 0.0803,-0.162201 0.11997,-0.246764 0.0274,-0.05837 0.0531,-0.12796 0.0812,-0.180945 0.0294,-0.0554 0.0608,-0.09447 0.0909,-0.143446 0.30098,-0.488519 -0.14908,0.224663 0.17111,-0.258531 0.0274,-0.04133 0.0535,-0.09367 0.0809,-0.135214 0.0262,-0.03983 0.0537,-0.06762 0.0798,-0.108791 0.0429,-0.06769 0.051,-0.09825 0.0868,-0.185774 0.009,-0.02291 0.0197,-0.04081 0.0282,-0.06776 0.0113,-0.03534 0.0203,-0.07983 0.031,-0.117929 0.01,-0.03547 0.0207,-0.06718 0.0306,-0.102672 0.0151,-0.05432 0.0273,-0.121252 0.0441,-0.168446 0.007,-0.01967 0.0154,-0.03059 0.0227,-0.04866 0.0145,-0.03609 0.0202,-0.08462 0.0331,-0.124007 0.002,-0.0051 0.004,-0.0052 0.006,-0.0109 0.009,-0.0362 0.006,-0.06512 0.009,-0.09901 5.6e-4,-0.0063 0.003,-0.0055 0.005,-0.0055"
       id="path7-2-9-4" />
    <path
       style="fill:none;fill-rule:evenodd;stroke:#0000ff;stroke-width:0.0366502;stroke-dasharray:0.0366502, 0.0733002;stroke-dashoffset:0;stroke-opacity:1;paint-order:markers fill stroke"
       d="m 131.16217,73.506155 c 0.0418,-0.06522 0.11093,-0.08443 0.16205,-0.13381 0.0216,-0.02083 0.0391,-0.0476 0.0619,-0.06645 0.0785,-0.06496 0.16789,-0.107965 0.25078,-0.164251 0.0572,-0.03885 0.11105,-0.08517 0.16983,-0.120441 0.0614,-0.03687 0.12695,-0.06288 0.19003,-0.09548 0.62919,-0.325167 -0.31165,0.14954 0.3577,-0.172083 0.0573,-0.02751 0.11196,-0.06235 0.16916,-0.09 0.0548,-0.02652 0.11221,-0.04501 0.16675,-0.07241 0.0897,-0.04506 0.1066,-0.0654 0.18142,-0.123655 0.0196,-0.01524 0.0411,-0.02717 0.0591,-0.0451 0.0236,-0.02352 0.0425,-0.05313 0.0648,-0.0785 0.0207,-0.02361 0.0432,-0.04472 0.0639,-0.06834 0.0317,-0.03616 0.0571,-0.08071 0.092,-0.112121 0.0146,-0.0131 0.0322,-0.02037 0.0474,-0.03239 0.0303,-0.02402 0.0422,-0.05633 0.0691,-0.08254 0.004,-0.0034 0.009,-0.0034 0.012,-0.0073 0.0198,-0.0241 0.0125,-0.04335 0.0182,-0.0659 0.001,-0.0042 0.007,-0.0037 0.0105,-0.0037"
       id="path7-2-9-1-51" />
    <path
       style="fill:none;fill-rule:evenodd;stroke:#0000ff;stroke-width:0.0412862;stroke-dasharray:0.0412862, 0.0825728;stroke-dashoffset:0;stroke-opacity:1;paint-order:markers fill stroke"
       d="m 135.89459,75.810164 c 0.0343,-0.100713 0.0912,-0.130376 0.13319,-0.206619 0.0177,-0.03216 0.0322,-0.0735 0.0509,-0.102601 0.0645,-0.100312 0.13797,-0.16671 0.20611,-0.253623 0.0471,-0.05999 0.0913,-0.131517 0.13956,-0.185974 0.0505,-0.05694 0.10433,-0.0971 0.15618,-0.147434 0.51708,-0.502098 -0.25613,0.230908 0.29397,-0.265717 0.0471,-0.04247 0.092,-0.09627 0.13902,-0.138971 0.0451,-0.04094 0.0922,-0.0695 0.13703,-0.111816 0.0737,-0.06958 0.0876,-0.10098 0.1491,-0.190937 0.0161,-0.02354 0.0338,-0.04196 0.0486,-0.06964 0.0194,-0.03632 0.035,-0.08205 0.0532,-0.121208 0.017,-0.03645 0.0356,-0.06905 0.0525,-0.105525 0.026,-0.05583 0.0469,-0.124622 0.0756,-0.173128 0.012,-0.02022 0.0265,-0.03145 0.0389,-0.05001 0.0249,-0.03709 0.0346,-0.08697 0.0568,-0.127453 0.003,-0.0052 0.007,-0.0053 0.01,-0.01121 0.0163,-0.03721 0.0103,-0.06693 0.0149,-0.10176 6.3e-4,-0.0065 0.006,-0.0057 0.009,-0.0057"
       id="path7-2-9-1-1-0" />
    <path
       style="fill:none;fill-rule:evenodd;stroke:#0000ff;stroke-width:0.0399864;stroke-dasharray:0.0399864, 0.0799733;stroke-dashoffset:0;stroke-opacity:1;paint-order:markers fill stroke"
       d="m 134.48739,79.11997 c 0.0387,-0.08376 0.10285,-0.108424 0.15023,-0.17183 0.02,-0.02674 0.0363,-0.06112 0.0574,-0.08533 0.0727,-0.08342 0.15562,-0.138641 0.23247,-0.21092 0.053,-0.04989 0.10294,-0.109374 0.15742,-0.154663 0.057,-0.04735 0.11768,-0.08075 0.17616,-0.12261 0.58324,-0.41756 -0.28889,0.19203 0.33158,-0.220979 0.0531,-0.03532 0.10378,-0.08006 0.1568,-0.115574 0.0508,-0.03405 0.10401,-0.05779 0.15458,-0.09299 0.0831,-0.05786 0.0988,-0.08398 0.16816,-0.158789 0.0181,-0.01958 0.0381,-0.03489 0.0548,-0.05792 0.0219,-0.0302 0.0394,-0.06823 0.06,-0.1008 0.0192,-0.03031 0.0401,-0.05742 0.0593,-0.08776 0.0293,-0.04643 0.053,-0.103641 0.0853,-0.143979 0.0135,-0.01682 0.0299,-0.02615 0.0439,-0.0416 0.0281,-0.03085 0.0391,-0.07233 0.0641,-0.105994 0.003,-0.0043 0.008,-0.0044 0.0111,-0.0093 0.0184,-0.03094 0.0116,-0.05566 0.0168,-0.08463 0.001,-0.0054 0.006,-0.0047 0.01,-0.0047"
       id="path7-2-9-1-3-3" />
    <path
       style="fill:none;fill-rule:evenodd;stroke:#0000ff;stroke-width:0.03107;stroke-dasharray:0.03107, 0.0621402;stroke-dashoffset:0;stroke-opacity:1;paint-order:markers fill stroke"
       d="m 137.19654,76.648864 c 0.02,-0.09799 0.0531,-0.12685 0.0775,-0.201032 0.0104,-0.03129 0.0188,-0.07151 0.0296,-0.09982 0.0375,-0.0976 0.0803,-0.162203 0.11997,-0.246765 0.0274,-0.05837 0.0531,-0.12796 0.0812,-0.180945 0.0294,-0.0554 0.0608,-0.09447 0.0909,-0.143446 0.30098,-0.488519 -0.14908,0.224663 0.17111,-0.258531 0.0274,-0.04133 0.0535,-0.09367 0.0809,-0.135214 0.0262,-0.03983 0.0537,-0.06762 0.0798,-0.108791 0.0429,-0.06769 0.051,-0.09825 0.0868,-0.185773 0.009,-0.02291 0.0197,-0.04082 0.0282,-0.06776 0.0113,-0.03534 0.0203,-0.07983 0.031,-0.11793 0.01,-0.03547 0.0207,-0.06718 0.0306,-0.102671 0.0151,-0.05432 0.0273,-0.121252 0.0441,-0.168446 0.007,-0.01967 0.0154,-0.03059 0.0227,-0.04866 0.0145,-0.03609 0.0202,-0.08462 0.0331,-0.124007 0.002,-0.0051 0.004,-0.0052 0.006,-0.0109 0.009,-0.0362 0.006,-0.06512 0.009,-0.09901 5.5e-4,-0.0063 0.003,-0.0055 0.005,-0.0055"
       id="path7-2-9-0-7" />
    <path
       style="fill:none;fill-rule:evenodd;stroke:#0000ff;stroke-width:0.0412862;stroke-dasharray:0.0412862, 0.0825728;stroke-dashoffset:0;stroke-opacity:1;paint-order:markers fill stroke"
       d="m 140.26076,74.943651 c 0.0343,-0.100713 0.0912,-0.130376 0.13319,-0.206619 0.0177,-0.03216 0.0322,-0.0735 0.0509,-0.102601 0.0645,-0.100313 0.13798,-0.16671 0.20611,-0.253623 0.047,-0.05999 0.0913,-0.131517 0.13956,-0.185975 0.0505,-0.05694 0.10433,-0.0971 0.15618,-0.147433 0.51709,-0.502098 -0.25613,0.230908 0.29397,-0.265717 0.0471,-0.04247 0.092,-0.09627 0.13902,-0.138971 0.0451,-0.04094 0.0922,-0.0695 0.13704,-0.111816 0.0737,-0.06958 0.0876,-0.10098 0.14909,-0.190937 0.0161,-0.02354 0.0338,-0.04196 0.0486,-0.06964 0.0194,-0.03632 0.035,-0.08205 0.0532,-0.121208 0.017,-0.03645 0.0356,-0.06905 0.0525,-0.105525 0.026,-0.05583 0.0469,-0.124622 0.0756,-0.173128 0.012,-0.02022 0.0265,-0.03145 0.0389,-0.05001 0.0249,-0.03709 0.0346,-0.08697 0.0568,-0.127453 0.003,-0.0052 0.007,-0.0053 0.01,-0.01121 0.0163,-0.03721 0.0103,-0.06693 0.015,-0.101759 6.2e-4,-0.0065 0.006,-0.0057 0.009,-0.0057"
       id="path7-2-9-1-1-6-86" />
    <path
       style="fill:none;fill-rule:evenodd;stroke:#0000ff;stroke-width:0.0244276;stroke-dasharray:0.0244276, 0.0488551;stroke-dashoffset:0;stroke-opacity:1;paint-order:markers fill stroke"
       d="m 137.87405,74.307949 c 0.0185,-0.06526 0.0492,-0.08448 0.0719,-0.133886 0.01,-0.02084 0.0174,-0.04762 0.0275,-0.06648 0.0348,-0.065 0.0745,-0.108026 0.11134,-0.164344 0.0254,-0.03887 0.0493,-0.08522 0.0754,-0.12051 0.0273,-0.03689 0.0564,-0.06292 0.0844,-0.09553 0.27935,-0.325352 -0.13837,0.149626 0.15881,-0.172181 0.0254,-0.02752 0.0497,-0.06238 0.0751,-0.09005 0.0244,-0.02653 0.0498,-0.04503 0.074,-0.07245 0.0398,-0.04508 0.0473,-0.06543 0.0806,-0.123724 0.009,-0.01525 0.0183,-0.02718 0.0262,-0.04513 0.0105,-0.02354 0.0189,-0.05317 0.0287,-0.07854 0.009,-0.02362 0.0192,-0.04474 0.0284,-0.06838 0.014,-0.03618 0.0254,-0.08075 0.0409,-0.112185 0.006,-0.0131 0.0143,-0.02038 0.021,-0.03241 0.0135,-0.02404 0.0188,-0.05636 0.0307,-0.08259 0.002,-0.0034 0.004,-0.0034 0.006,-0.0073 0.009,-0.02411 0.006,-0.04337 0.008,-0.06594 5.6e-4,-0.0042 0.003,-0.0037 0.004,-0.0037"
       id="path7-2-9-1-9" />
    <path
       style="fill:none;fill-rule:evenodd;stroke:#0000ff;stroke-width:0.0244276;stroke-dasharray:0.0244276, 0.0488551;stroke-dashoffset:0;stroke-opacity:1;paint-order:markers fill stroke"
       d="m 142.24022,73.441436 c 0.0185,-0.06526 0.0492,-0.08448 0.072,-0.133886 0.01,-0.02084 0.0174,-0.04762 0.0275,-0.06648 0.0348,-0.065 0.0745,-0.108026 0.11134,-0.164344 0.0254,-0.03887 0.0493,-0.08522 0.0754,-0.12051 0.0273,-0.03689 0.0564,-0.06292 0.0844,-0.09553 0.27935,-0.325352 -0.13837,0.149626 0.15882,-0.172181 0.0254,-0.02752 0.0497,-0.06238 0.0751,-0.09005 0.0244,-0.02653 0.0498,-0.04503 0.074,-0.07245 0.0398,-0.04508 0.0474,-0.06543 0.0806,-0.123724 0.009,-0.01525 0.0183,-0.02718 0.0262,-0.04513 0.0105,-0.02354 0.0189,-0.05317 0.0287,-0.07854 0.009,-0.02362 0.0192,-0.04474 0.0284,-0.06838 0.014,-0.03618 0.0254,-0.08075 0.0409,-0.112185 0.006,-0.0131 0.0143,-0.02038 0.021,-0.03241 0.0135,-0.02404 0.0188,-0.05636 0.0307,-0.08259 0.002,-0.0034 0.004,-0.0034 0.006,-0.0073 0.009,-0.02411 0.006,-0.04337 0.008,-0.06594 5.5e-4,-0.0042 0.003,-0.0037 0.004,-0.0037"
       id="path7-2-9-1-5-53" />
    <path
       style="fill:none;fill-rule:evenodd;stroke:#0000ff;stroke-width:0.0620922;stroke-dasharray:0.0459418, 0.0918837;stroke-dashoffset:0;stroke-opacity:1;paint-order:markers fill stroke"
       d="m 139.43281,77.698608 c 0.17796,-0.202519 0.34797,-0.431137 0.53387,-0.607561 0.0949,-0.09002 0.20186,-0.127089 0.30343,-0.187061 0.24995,-0.147594 0.38842,-0.24372 0.64651,-0.291125 0.12069,-0.02217 0.24257,0 0.36386,0 0.31192,0 0.62385,0 0.93578,0"
       id="path8" />
    <path
       style="fill:none;fill-rule:evenodd;stroke:#0000ff;stroke-width:0.0620922;stroke-dasharray:0.0459417, 0.0918837;stroke-dashoffset:0;stroke-opacity:1;paint-order:markers fill stroke"
       d="m 141.0083,79.056467 c 0.12045,-0.140411 0.24848,-0.258407 0.36684,-0.404826 0.3562,-0.440651 0.69191,-0.938607 1.06364,-1.337303 0.22566,-0.242044 0.479,-0.432587 0.66839,-0.775094"
       id="path9" />
    <path
       style="fill:none;fill-rule:evenodd;stroke:#0000ff;stroke-width:0.0620922;stroke-dasharray:0.0459417, 0.0918837;stroke-dashoffset:0;stroke-opacity:1;paint-order:markers fill stroke"
       d="m 142.26216,75.209135 c 0.10286,-0.07456 0.2146,-0.116224 0.30857,-0.223676 0.17088,-0.195402 0.32074,-0.447742 0.47893,-0.676808 0.782,-1.132327 0.18994,-0.294916 0.84862,-1.274864 0.11341,-0.168716 0.26802,-0.442491 0.40969,-0.53356 0.0471,-0.0303 0.22474,0 0.28405,0"
       id="path11" />
    <path
       style="fill:none;fill-rule:evenodd;stroke:#0000ff;stroke-width:0.0620922;stroke-dasharray:0.0459417, 0.0918837;stroke-dashoffset:0;stroke-opacity:1;paint-order:markers fill stroke"
       d="m 144.71648,72.500227 c 0.0652,0 0.13038,0 0.19557,0"
       id="path12" />
    <path
       style="fill:none;fill-rule:evenodd;stroke:#0000ff;stroke-width:0.0620922;stroke-dasharray:0.0459417, 0.0918837;stroke-dashoffset:0;stroke-opacity:1;paint-order:markers fill stroke"
       d="m 138.4764,76.207906 c 0.17583,-0.222648 0.34597,-0.461493 0.52748,-0.667945 0.23529,-0.267621 0.76799,-0.789412 1.08114,-0.57737 0.0528,0.03574 0.14247,0.339966 0.16099,0.477802 0.0109,0.08129 -0.001,0.174799 0.0202,0.248471 0.0128,0.04393 0.047,0.0501 0.0722,0.06783 0.0833,0.05851 0.14777,0.03289 0.24245,0.03289 0.26654,0 0.31173,-0.1084 0.55213,-0.28496 0.19138,-0.140561 0.3848,-0.271634 0.57866,-0.400072 0.0715,-0.04736 0.13791,-0.0459 0.19224,-0.14505 0.009,-0.01624 0.006,-0.04949 0.0168,-0.06205 0.0469,-0.0562 0.0351,0.07861 0.0351,-0.06578"
       id="path13" />
    <path
       style="fill:none;fill-rule:evenodd;stroke:#0000ff;stroke-width:0.0620922;stroke-dasharray:0.0459417, 0.0918837;stroke-dashoffset:0;stroke-opacity:1;paint-order:markers fill stroke"
       d="m 140.99038,78.621063 c 0.17675,-0.277098 0.4247,-0.793311 0.69958,-0.714195 0.0447,0.01288 0.002,0.03315 0.0178,0.06193 0.0504,0.09231 0.14718,0.267692 0.21293,0.328513 0.0642,0.05938 0.0757,0.0175 0.14224,0.03289 0.20743,0.04797 0.39788,0.119836 0.61311,0.121151 0.14584,9.72e-4 0.51437,-0.09289 0.64769,-0.141322 0.10175,-0.03696 0.19975,-0.105234 0.30177,-0.139524 0.74866,-0.251664 -0.19719,0.11577 0.4265,-0.04176 0.0264,-0.0067 0.0452,-0.05732 0.0715,-0.06578 0.0434,-0.01403 0.0889,0.01407 0.13237,0 0.24163,-0.07821 0.0376,-0.074 0.11404,-0.074"
       id="path17" />
  </g>
</svg>
